<?xml version="1.0"?>
<svg width="640" height="480" xmlns="http://www.w3.org/2000/svg" xmlns:svg="http://www.w3.org/2000/svg">
 <!-- Created with SVG-edit - https://github.com/SVG-Edit/svgedit-->

 <g class="layer">
  <title>Layer 1</title>
  <text fill="#0000ff" font-family="Sans-serif" font-size="92" font-weight="bold" id="svg_1" stroke="#191919" stroke-linecap="square" stroke-linejoin="round" stroke-width="2" text-anchor="middle" transform="matrix(0.677524, 0, 0, 0.539216, 89.5945, 116.809)" x="38.235574" xml:space="preserve" y="-25.136365">Jess</text>
  <path d="m193.071907,185.636278c0,2.638841 -2.137915,4.776762 -4.776769,4.776762l-30.589135,0c-2.638841,0 -4.776762,-2.137915 -4.776762,-4.776762l0,-64.987686c0,-2.638637 2.137915,-4.776762 4.776762,-4.776762l30.589135,0c2.638854,0 4.776769,2.138125 4.776769,4.776762l0,64.987686zm-113.249432,0c0,2.638841 -2.138335,4.776762 -4.776769,4.776762l-30.589549,0c-2.638433,0 -4.776762,-2.137915 -4.776762,-4.776762l0,-64.987686c0,-2.638637 2.138329,-4.776762 4.776762,-4.776762l30.589549,0c2.638433,0 4.776769,2.138125 4.776769,4.776762l0,64.987686zm36.955819,-176.220806c-55.352583,0 -100.28605,44.527116 -100.976119,99.710785l17.524169,0c0.568242,-45.60991 37.707001,-82.410244 83.451949,-82.410244c45.744942,0 82.883721,36.800334 83.44532,82.410244l17.523762,0c-0.683038,-55.183669 -45.629725,-99.710785 -100.969089,-99.710785l0.000007,0zm-100.834057,150.259558l17.206184,0l0,-50.650357l-17.206184,0l0,50.650357zm184.137334,-50.657177l0,50.650574l17.841728,0l0,-50.650574l-17.841728,0z" fill="#e01414" id="svg_12" stroke="#191919" stroke-dasharray="null" stroke-linecap="null" stroke-linejoin="bevel"/>
 </g>
</svg>